<svg xmlns="http://www.w3.org/2000/svg" viewBox="0 0 640 720" fill="none">
  <defs>
    <linearGradient id="bg" x1="120" y1="60" x2="540" y2="660" gradientUnits="userSpaceOnUse">
      <stop stop-color="#5B7BFF" stop-opacity="0.7" />
      <stop offset="0.5" stop-color="#FF3FAC" stop-opacity="0.75" />
      <stop offset="1" stop-color="#7EFFF5" stop-opacity="0.65" />
    </linearGradient>
    <linearGradient id="glass" x1="180" y1="120" x2="460" y2="520" gradientUnits="userSpaceOnUse">
      <stop stop-color="#FFFFFF" stop-opacity="0.45" />
      <stop offset="1" stop-color="#9CC8FF" stop-opacity="0.08" />
    </linearGradient>
    <radialGradient id="glow" cx="0" cy="0" r="1" gradientUnits="userSpaceOnUse" gradientTransform="translate(320 360) rotate(90) scale(320 260)">
      <stop stop-color="#7EFFF5" stop-opacity="0.38" />
      <stop offset="1" stop-color="#7EFFF5" stop-opacity="0" />
    </radialGradient>
    <filter id="blur" x="-20" y="-20" width="680" height="760" color-interpolation-filters="sRGB">
      <feGaussianBlur stdDeviation="18" />
    </filter>
  </defs>
  <rect x="34" y="46" width="572" height="628" rx="72" fill="#0C0D1A" stroke="rgba(255,255,255,0.12)" stroke-width="2" />
  <rect x="60" y="72" width="520" height="574" rx="64" fill="url(#bg)" opacity="0.35" />
  <ellipse cx="320" cy="368" rx="300" ry="260" fill="url(#glow)" filter="url(#blur)" />
  <rect x="124" y="136" width="392" height="448" rx="52" fill="#0E1020" stroke="rgba(255,255,255,0.24)" stroke-width="2" />
  <rect x="148" y="162" width="344" height="398" rx="46" fill="#0D1424" stroke="rgba(255,255,255,0.16)" stroke-width="2" />
  <rect x="170" y="188" width="300" height="348" rx="40" fill="url(#glass)" stroke="rgba(255,255,255,0.26)" stroke-width="2" />
  <rect x="188" y="206" width="264" height="312" rx="34" fill="#090C18" stroke="rgba(255,255,255,0.22)" stroke-width="1.5" />
  <path d="M248 420c-4-70 28-126 72-126s76 56 72 126" stroke="#5B7BFF" stroke-width="10" stroke-linecap="round" />
  <path d="M244 396c-6-52 24-102 76-102s82 50 76 102" stroke="#FF3FAC" stroke-width="10" stroke-linecap="round" />
  <circle cx="244" cy="302" r="20" fill="#0F1A2C" stroke="#7EFFF5" stroke-width="4" />
  <circle cx="396" cy="302" r="20" fill="#0F1A2C" stroke="#7EFFF5" stroke-width="4" />
  <circle cx="244" cy="302" r="9" fill="#7EFFF5" />
  <circle cx="396" cy="302" r="9" fill="#7EFFF5" />
  <path d="M274 350h92" stroke="#7EFFF5" stroke-width="6" stroke-linecap="round" />
  <path d="M274 372h92" stroke="#5B7BFF" stroke-width="6" stroke-linecap="round" stroke-dasharray="14 12" />
  <path d="M240 468h160c12 0 22 10 22 22v22c0 12-10 22-22 22H240c-12 0-22-10-22-22v-22c0-12 10-22 22-22z" fill="#0E1628" stroke="#FF3FAC" stroke-width="3" />
  <path d="M262 504h116" stroke="#7EFFF5" stroke-width="4" stroke-linecap="round" stroke-dasharray="16 10" />
  <rect x="220" y="228" width="36" height="22" rx="8" fill="#FF3FAC" opacity="0.8" />
  <rect x="384" y="228" width="36" height="22" rx="8" fill="#5B7BFF" opacity="0.85" />
  <circle cx="320" cy="210" r="12" fill="#7EFFF5" opacity="0.9" />
  <rect x="282" y="548" width="76" height="18" rx="9" fill="#5B7BFF" opacity="0.7" />
  <rect x="302" y="566" width="36" height="12" rx="6" fill="#7EFFF5" opacity="0.7" />
  <path d="M188 260h-30c-10 0-18-8-18-18s8-18 18-18h38" stroke="#FF3FAC" stroke-width="8" stroke-linecap="round" />
  <path d="M452 224h38c10 0 18 8 18 18s-8 18-18 18h-30" stroke="#5B7BFF" stroke-width="8" stroke-linecap="round" />
  <circle cx="140" cy="242" r="8" fill="#FF3FAC" />
  <circle cx="500" cy="242" r="8" fill="#5B7BFF" />
  <path d="M220 620c24 12 52 18 100 18s76-6 100-18" stroke="#7EFFF5" stroke-width="6" stroke-linecap="round" opacity="0.6" />
  <path d="M216 596c28 12 60 18 104 18s76-6 104-18" stroke="#5B7BFF" stroke-width="4" stroke-linecap="round" opacity="0.45" />
  <path d="M212 572c30 10 64 16 108 16s78-6 108-16" stroke="#FF3FAC" stroke-width="3" stroke-linecap="round" opacity="0.35" />
  <circle cx="320" cy="120" r="18" fill="#0F1A2C" stroke="#7EFFF5" stroke-width="3" />
  <rect x="302" y="90" width="36" height="14" rx="7" fill="#FF3FAC" />
  <path d="M320 78c10 0 18 8 18 18v16" stroke="#7EFFF5" stroke-width="4" stroke-linecap="round" />
  <path d="M320 136v16" stroke="#5B7BFF" stroke-width="4" stroke-linecap="round" />
</svg>
